Coordinates
version=1
nRows=26
nColumns=24
inDegrees=yes

Units are S.I. units (second, meters, Newtons, ...)
Angles are in degrees.

endheader
time	pelvis_tilt	pelvis_list	pelvis_rotation	pelvis_tx	pelvis_ty	pelvis_tz	hip_flexion_r	hip_adduction_r	hip_rotation_r	knee_angle_r	ankle_angle_r	subtalar_angle_r	mtp_angle_r	hip_flexion_l	hip_adduction_l	hip_rotation_l	knee_angle_l	ankle_angle_l	subtalar_angle_l	mtp_angle_l	lumbar_extension	lumbar_bending	lumbar_rotation
      4.14000000	     -7.65364607	     -2.73635974	     10.33623738	     -1.28864308	     -0.04348320	      0.56036326	     34.97998902	     -4.21297948	    -19.95605076	    -14.20219317	     -2.12577066	     -0.66415108	      1.49791589	     -8.02819738	     -3.30699344	      5.74945155	    -13.24923758	     14.95589205	      9.94497672	     10.11857156	      6.00894717	      0.15975516	    -14.53992078
      4.14500000	     -7.63578066	     -3.02964029	     10.44913887	     -1.28130982	     -0.04454369	      0.56090314	     34.94889016	     -3.90740217	    -19.98839911	    -14.77687000	     -2.57463039	     -0.66485027	      0.78181546	     -8.19831826	     -3.79761426	      5.62319481	    -13.73001573	     14.78961267	     10.26852192	     11.01261625	      6.13464076	      0.46158086	    -14.66057810
      4.15000000	     -7.72070827	     -3.32016955	     10.45600853	     -1.27387262	     -0.04568147	      0.56148256	     35.04606497	     -3.58542071	    -19.94262080	    -15.35377926	     -3.20635999	     -0.65052546	      0.73466488	     -8.29346633	     -4.22569161	      5.63127126	    -14.23713570	     14.63645399	     10.39352905	     11.18773066	      6.38615599	      0.76718997	    -14.64272828
      4.15500000	     -7.75100748	     -3.66952885	     10.50296501	     -1.26653843	     -0.04667028	      0.56218961	     35.07094585	     -3.18561672	    -19.79068755	    -15.86934952	     -4.07275687	     -1.01809883	      0.75797365	     -8.31748384	     -4.77451696	      5.27481937	    -14.90818854	     14.49867976	     11.02415150	     11.75207640	      6.56768097	      1.11741263	    -14.67922582
      4.16000000	     -7.82348121	     -4.04730691	     10.49264890	     -1.25909574	     -0.04762246	      0.56289809	     35.15186179	     -2.75716189	    -19.63023577	    -16.40819962	     -4.96124543	     -1.21313563	      0.84383384	     -8.31530700	     -5.32113599	      5.06451585	    -15.56992042	     14.25699860	     11.43071642	     12.20706478	      6.82118854	      1.51013267	    -14.63612995
      4.16500000	     -7.87842746	     -4.41613869	     10.43917630	     -1.25171163	     -0.04849208	      0.56365630	     35.25775705	     -2.32090434	    -19.44161665	    -17.01927995	     -5.91201658	     -1.53836227	      0.92108119	     -8.29750584	     -5.86034292	      4.70709060	    -16.29184734	     13.94930005	     11.89987134	     12.76485458	      7.04056656	      1.90935045	    -14.55987624
      4.17000000	     -7.94719431	     -4.80856637	     10.36426827	     -1.24431046	     -0.04927655	      0.56444228	     35.38783146	     -1.85779731	    -19.19972098	    -17.65534387	     -6.82768966	     -1.87982900	      0.92310637	     -8.22799514	     -6.41811122	      4.37587912	    -17.08075107	     13.55296346	     12.34698802	     13.35477244	      7.28274471	      2.33349984	    -14.45488239
      4.17500000	     -8.01824532	     -5.20558688	     10.25904565	     -1.23691936	     -0.04997286	      0.56526930	     35.53881045	     -1.37450458	    -18.88788183	    -18.33791755	     -7.67681050	     -2.30915109	      0.82852398	     -8.11541634	     -6.98188635	      3.98715290	    -17.94290311	     13.05668693	     12.83801521	     14.03982490	      7.52671686	      2.76981400	    -14.30581861
      4.18000000	     -8.09092671	     -5.60146550	     10.12440595	     -1.22954740	     -0.05058871	      0.56611619	     35.71155971	     -0.87892086	    -18.52983616	    -19.07981162	     -8.42111412	     -2.82038185	      0.62969031	     -7.95411511	     -7.54241504	      3.56417811	    -18.89607477	     12.46244692	     13.33887761	     14.80332865	      7.76595221	      3.21207604	    -14.13815486
      4.18500000	     -8.14695189	     -5.97134585	      9.93531433	     -1.22217368	     -0.05109385	      0.56704257	     35.87956390	     -0.37056993	    -18.13641753	    -19.87453745	     -9.02350384	     -3.38828095	      0.32188312	     -7.78383057	     -8.08509452	      3.05656247	    -19.90772282	     11.70556768	     13.89691715	     15.78114065	      7.97790948	      3.63831389	    -13.87205209
      4.19000000	     -8.22081911	     -6.34118327	      9.77366265	     -1.21485959	     -0.05154097	      0.56792713	     36.06013676	      0.13061833	    -17.68633033	    -20.68631944	     -9.47119831	     -4.08247414	     -0.03715431	     -7.50693882	     -8.63040303	      2.56564988	    -21.06625324	     10.86179628	     14.45190825	     16.71469041	      8.20438191	      4.05927141	    -13.69230312
      4.19500000	     -8.30764451	     -6.72831201	      9.57951099	     -1.20754836	     -0.05190521	      0.56882290	     36.24313529	      0.67026836	    -17.23104279	    -21.48861423	     -9.83049121	     -4.79521920	     -0.38847020	     -7.16935657	     -9.19430868	      2.10098597	    -22.31497717	      9.90655317	     15.04042914	     17.66408021	      8.44602947	      4.51104712	    -13.44356625
      4.20000000	     -8.37274362	     -7.06126303	      9.34957067	     -1.20026310	     -0.05217630	      0.56980347	     36.39110939	      1.20007697	    -16.76603424	    -22.30004208	    -10.02309856	     -5.57139704	     -0.72954085	     -6.80479075	     -9.72794556	      1.49743207	    -23.66158483	      8.77428924	     15.71168582	     18.75581139	      8.64307644	      4.90493212	    -13.16055935
      4.20500000	     -8.41709098	     -7.37269944	      9.11541604	     -1.19302894	     -0.05233672	      0.57078937	     36.48413897	      1.73022409	    -16.29227021	    -23.07174786	    -10.08545946	     -6.30302272	     -1.01902214	     -6.40277536	    -10.25495624	      0.90686657	    -25.10029552	      7.47798114	     16.36816530	     19.94770123	      8.80420090	      5.28312489	    -12.87779311
      4.21000000	     -8.39102924	     -7.65868983	      8.85912573	     -1.18577552	     -0.05231344	      0.57177271	     36.45531217	      2.27947562	    -15.83177960	    -23.78511684	    -10.01295271	     -6.99364062	     -1.30427972	     -6.06254105	    -10.76241590	      0.35304568	    -26.52859871	      5.90620239	     16.75548036	     21.61256572	      8.88217268	      5.65830418	    -12.55969910
      4.21500000	     -8.46707932	     -7.95018084	      8.63072850	     -1.17860705	     -0.05235932	      0.57276591	     36.49872005	      2.80621608	    -15.39928819	    -24.43295210	     -9.84627260	     -7.59675401	     -1.35211069	     -5.48232695	    -11.29611222	     -0.20752748	    -28.20098222	      4.38903559	     17.43427450	     22.53128609	      9.06618209	      6.00697385	    -12.31846894
      4.22000000	     -8.49603661	     -8.21169634	      8.38427699	     -1.17150588	     -0.05225898	      0.57382468	     36.44679090	      3.34452453	    -14.97960687	    -25.00274345	     -9.63714096	     -8.21273519	     -1.33417000	     -4.90960201	    -11.81931522	     -0.76120526	    -29.91164923	      2.69669654	     17.99854964	     23.60209460	      9.17663271	      6.33173201	    -12.03247307
      4.22500000	     -8.51238099	     -8.43408198	      8.15947537	     -1.16457399	     -0.05209180	      0.57485952	     36.35695132	      3.81968598	    -14.68467585	    -25.54100763	     -9.32243335	     -8.61059639	     -1.20811866	     -4.26120320	    -12.31799521	     -1.26500696	    -31.74302506	      0.97527459	     18.59703285	     24.38420098	      9.23886046	      6.61100127	    -11.73221651
      4.23000000	     -8.54538206	     -8.69179544	      7.91640139	     -1.15760874	     -0.05187555	      0.57594560	     36.21938785	      4.36632665	    -14.35406050	    -25.95241561	     -8.98282660	     -9.08256409	     -1.05784211	     -3.54529783	    -12.86218035	     -1.75594614	    -33.61332943	     -0.81671626	     18.98196446	     25.20821543	      9.33150437	      6.92889356	    -11.44793174
      4.23500000	     -8.55888432	     -8.91707059	      7.69595057	     -1.15075551	     -0.05152658	      0.57703239	     36.00944797	      4.88102004	    -14.03643496	    -26.27393484	     -8.62681220	     -9.48026072	     -0.83774538	     -2.78970073	    -13.37242187	     -2.13286372	    -35.50595436	     -2.67042579	     19.23221925	     26.03772376	      9.38177720	      7.20716540	    -11.19042191
      4.24000000	     -8.55991070	     -9.11163634	      7.51077443	     -1.14399204	     -0.05112595	      0.57810299	     35.74444546	      5.35288377	    -13.77150789	    -26.53092925	     -8.18548149	     -9.85249982	     -0.55719434	     -1.97812611	    -13.85328706	     -2.43566309	    -37.43710654	     -4.48735121	     19.34734228	     26.80321431	      9.40559805	      7.44158875	    -10.97584697
      4.24500000	     -8.56492320	     -9.33308951	      7.32832023	     -1.13734553	     -0.05067755	      0.57913197	     35.45077928	      5.83487440	    -13.58095730	    -26.71575209	     -7.74054736	    -10.05933437	     -0.28250036	     -1.08636633	    -14.35133163	     -2.67093758	    -39.43223931	     -6.18670704	     19.33238012	     27.32189992	      9.42009990	      7.71340966	    -10.75362009
      4.25000000	     -8.56720582	     -9.56138742	      7.16465844	     -1.13075724	     -0.05017842	      0.58012428	     35.11271690	      6.31354225	    -13.43127556	    -26.82621718	     -7.26006758	    -10.20796511	     -0.03915296	     -0.13719991	    -14.84302822	     -2.82534012	    -41.44922173	     -7.75847248	     19.18892970	     27.69909810	      9.42981713	      7.98508199	    -10.54625575
      4.25500000	     -8.56803979	     -9.79057264	      7.01758648	     -1.12427725	     -0.04962942	      0.58107583	     34.74115005	      6.78123798	    -13.31066834	    -26.87142501	     -6.78861835	    -10.30059785	      0.18829436	      0.87187154	    -15.31758672	     -2.89885175	    -43.47776973	     -9.18548888	     18.93523542	     28.03135317	      9.42388820	      8.26016289	    -10.35932045
      4.26000000	     -8.50184154	    -10.01110457	      6.85763096	     -1.11785316	     -0.04897261	      0.58198730	     34.25670333	      7.26049025	    -13.16511828	    -26.84950824	     -6.26100688	    -10.27602726	      0.35010451	      1.82880102	    -15.76333974	     -2.94839134	    -45.48913871	    -10.40352565	     18.53872755	     28.13230707	      9.33181643	      8.54355422	    -10.14315686
      4.26500000	     -8.48915663	    -10.25689650	      6.73084881	     -1.11151301	     -0.04832338	      0.58284462	     33.80200543	      7.73024697	    -13.09260313	    -26.75884059	     -5.79077355	    -10.25658368	      0.50824648	      2.91014826	    -16.21463420	     -2.91191024	    -47.49293941	    -11.43586877	     18.10148056	     28.32894961	      9.30031362	      8.84237827	     -9.96430147
